<svg xmlns="http://www.w3.org/2000/svg" width="23" height="32" viewBox="0 0 23 32">
    <path fill="#006BE6" fill-rule="nonzero" d="M7.149 11.95c.137-.034.31.07.31.207v1.585c0 .104-.07.173-.173.207-3.194 1.068-5.495 4.17-5.324 7.753.206 3.997 3.4 7.236 7.351 7.442 3.813.207 7.042-2.308 7.97-5.788a.258.258 0 0 1 .24-.173h1.545c.172 0 .275.173.24.31-.995 4.48-5.014 7.788-9.789 7.684-5.152-.138-9.377-4.341-9.515-9.51-.137-4.617 2.954-8.545 7.145-9.716zm-2.336 9.097c0 2.894 2.37 5.272 5.29 5.306v1.206c-3.572 0-6.492-2.928-6.492-6.512h1.202zM13.717 6.6A3.328 3.328 0 0 1 9.363 4.79 3.346 3.346 0 0 1 11.167.423c1.7-.706 3.649.104 4.353 1.81a3.346 3.346 0 0 1-1.803 4.366zm-5.09 12.553h.033v-8.373c0-1.723 1.34-3.17 3.057-3.204a3.159 3.159 0 0 1 2.748 1.55l3.264 4.652.103.138h3.984c.584 0 1.134.448 1.168 1.068 0 .344-.103.655-.343.896a1.198 1.198 0 0 1-.825.344h-4.603-.034c-.137 0-.275-.034-.378-.069-.069 0-.103-.034-.172-.069a1.01 1.01 0 0 1-.412-.344l-1.374-1.964-.034-.069v3.135c0 .07.069.138.137.138l5.428.586c1.442.207 2.507 1.413 2.507 2.86v6.96c0 .379-.31.724-.721.724h-1.374a.727.727 0 0 1-.722-.724v-4.341a.91.91 0 0 0-.893-.896h-8.45a2.085 2.085 0 0 1-2.095-2.102v-.896z"/>
</svg>
