<svg xmlns="http://www.w3.org/2000/svg" width="30" height="27" viewBox="0 0 30 27">
    <path fill="#006BE6" fill-rule="nonzero" d="M8.1 5.4V4.05A4.05 4.05 0 0 1 12.15 0h5.4a4.05 4.05 0 0 1 4.05 4.05V5.4h4.05a4.05 4.05 0 0 1 4.05 4.05v13.5A4.05 4.05 0 0 1 25.65 27H4.05A4.05 4.05 0 0 1 0 22.95V9.45A4.05 4.05 0 0 1 4.05 5.4H8.1zm2.7 0h8.1V4.05a1.35 1.35 0 0 0-1.35-1.35h-5.4a1.35 1.35 0 0 0-1.35 1.35V5.4zM8.1 8.1H4.05A1.35 1.35 0 0 0 2.7 9.45v13.5c0 .746.604 1.35 1.35 1.35H8.1V8.1zm2.7 0v16.2h8.1V8.1h-8.1zm10.8 0v16.2h4.05A1.35 1.35 0 0 0 27 22.95V9.45a1.35 1.35 0 0 0-1.35-1.35H21.6z"/>
</svg>
