<?xml version="1.0" encoding="UTF-8" standalone="no"?>
<svg
   viewBox="0 0 24 24"
   width="24"
   height="24"
   version="1.1"
   id="svg898"
   sodipodi:docname="customer-service-2-line.svg"
   inkscape:version="1.1.1 (1:1.1+202109281944+c3084ef5ed)"
   xmlns:inkscape="http://www.inkscape.org/namespaces/inkscape"
   xmlns:sodipodi="http://sodipodi.sourceforge.net/DTD/sodipodi-0.dtd"
   xmlns="http://www.w3.org/2000/svg"
   xmlns:svg="http://www.w3.org/2000/svg">
  <defs
     id="defs902" />
  <sodipodi:namedview
     id="namedview900"
     pagecolor="#505050"
     bordercolor="#ffffff"
     borderopacity="1"
     inkscape:pageshadow="0"
     inkscape:pageopacity="0"
     inkscape:pagecheckerboard="1"
     showgrid="false"
     inkscape:zoom="32.583333"
     inkscape:cx="2.1176471"
     inkscape:cy="11.984655"
     inkscape:window-width="1920"
     inkscape:window-height="1016"
     inkscape:window-x="0"
     inkscape:window-y="0"
     inkscape:window-maximized="1"
     inkscape:current-layer="svg898" />
  <path
     fill="none"
     d="M0 0h24v24H0z"
     id="path894" />
  <path
     d="M19.938 8H21a2 2 0 0 1 2 2v4a2 2 0 0 1-2 2h-1.062A8.001 8.001 0 0 1 12 23v-2a6 6 0 0 0 6-6V9A6 6 0 1 0 6 9v7H3a2 2 0 0 1-2-2v-4a2 2 0 0 1 2-2h1.062a8.001 8.001 0 0 1 15.876 0zM3 10v4h1v-4H3zm17 0v4h1v-4h-1zM7.76 15.785l1.06-1.696A5.972 5.972 0 0 0 12 15a5.972 5.972 0 0 0 3.18-.911l1.06 1.696A7.963 7.963 0 0 1 12 17a7.963 7.963 0 0 1-4.24-1.215z"
     id="path896"
     style="fill:#000091;fill-opacity:1" />
</svg>
