<?xml version="1.0" encoding="UTF-8" standalone="no"?>
<svg
   viewBox="0 0 24 24"
   width="24"
   height="24"
   version="1.1"
   id="svg1032"
   sodipodi:docname="open-arm-line.svg"
   inkscape:version="1.1.1 (1:1.1+202109281944+c3084ef5ed)"
   xmlns:inkscape="http://www.inkscape.org/namespaces/inkscape"
   xmlns:sodipodi="http://sodipodi.sourceforge.net/DTD/sodipodi-0.dtd"
   xmlns="http://www.w3.org/2000/svg"
   xmlns:svg="http://www.w3.org/2000/svg">
  <defs
     id="defs1036" />
  <sodipodi:namedview
     id="namedview1034"
     pagecolor="#505050"
     bordercolor="#ffffff"
     borderopacity="1"
     inkscape:pageshadow="0"
     inkscape:pageopacity="0"
     inkscape:pagecheckerboard="1"
     showgrid="false"
     inkscape:zoom="32.583333"
     inkscape:cx="2.1176471"
     inkscape:cy="11.984655"
     inkscape:window-width="1920"
     inkscape:window-height="1016"
     inkscape:window-x="0"
     inkscape:window-y="0"
     inkscape:window-maximized="1"
     inkscape:current-layer="svg1032" />
  <path
     fill="none"
     d="M0 0h24v24H0z"
     id="path1028" />
  <path
     d="M18 17v5h-2v-5c0-4.451 2.644-8.285 6.447-10.016l.828 1.82A9.002 9.002 0 0 0 18 17zM8 17v5H6v-5A9.002 9.002 0 0 0 .725 8.805l.828-1.821A11.002 11.002 0 0 1 8 17zm4-5a5 5 0 1 1 0-10 5 5 0 0 1 0 10zm0-2a3 3 0 1 0 0-6 3 3 0 0 0 0 6z"
     id="path1030"
     style="fill:#000091;fill-opacity:1" />
</svg>
