<svg xmlns="http://www.w3.org/2000/svg" width="30" height="30" viewBox="0 0 30 30">
    <g fill="#006BE6" fill-rule="nonzero">
        <path d="M15.005 0A14.981 14.981 0 0 0 2.023 22.5L.07 28.353a1.25 1.25 0 0 0 1.582 1.581l5.853-1.953A15 15 0 1 0 15.005 0zm0 27.5a12.45 12.45 0 0 1-6.672-1.944 1.25 1.25 0 0 0-1.063-.128l-4.04 1.347 1.347-4.04a1.25 1.25 0 0 0-.129-1.063A12.5 12.5 0 1 1 15.005 27.5z"/>
        <path d="M10.005 11.25c.69 0 1.25.56 1.25 1.25a1.25 1.25 0 1 0 2.5 0 3.75 3.75 0 0 0-7.5 0 1.25 1.25 0 1 0 2.5 0c0-.69.56-1.25 1.25-1.25zM20.005 8.75a3.75 3.75 0 0 0-3.75 3.75 1.25 1.25 0 1 0 2.5 0 1.25 1.25 0 0 1 2.5 0 1.25 1.25 0 1 0 2.5 0 3.75 3.75 0 0 0-3.75-3.75zM19.12 17.866l-.731.734a4.906 4.906 0 0 1-6.769 0l-.731-.734a1.25 1.25 0 0 0-1.769 1.768l.735.732a7.281 7.281 0 0 0 10.312 0l.735-.732a1.25 1.25 0 0 0-1.77-1.768h-.012z"/>
    </g>
</svg>
