<svg xmlns="http://www.w3.org/2000/svg" width="30" height="32" viewBox="0 0 30 32">
    <g fill="#006BE6" fill-rule="evenodd">
        <path fill-rule="nonzero" d="M5 20.75v-7.5c0-5.523 4.477-10 10-10s10 4.477 10 10v7.5a1.25 1.25 0 0 0 2.5 0v-7.5C27.5 6.346 21.904.75 15 .75S2.5 6.346 2.5 13.25v7.5a1.25 1.25 0 0 0 2.5 0z"/>
        <path fill-rule="nonzero" d="M20 28.25a1.25 1.25 0 0 0 0 2.5h6.25c.69 0 1.25-.56 1.25-1.25V18.433a1.25 1.25 0 1 0-2.5 0v9.817h-5z"/>
        <path fill-rule="nonzero" d="M12.5 27h5a2.5 2.5 0 1 1 0 5h-5a2.5 2.5 0 1 1 0-5zm0 1.25a1.25 1.25 0 0 0 0 2.5h5a1.25 1.25 0 0 0 0-2.5h-5zM3.75 12.25v7a1.5 1.5 0 0 1-1.5 1.5H1.5a1.5 1.5 0 0 1-1.5-1.5v-7a1.5 1.5 0 0 1 1.5-1.5h.75a1.5 1.5 0 0 1 1.5 1.5zm-2.25 6h.75a.997.997 0 0 0-.375.073.997.997 0 0 0-.375-.073zM30 12.25v7a1.5 1.5 0 0 1-1.5 1.5h-.75a1.5 1.5 0 0 1-1.5-1.5v-7a1.5 1.5 0 0 1 1.5-1.5h.75a1.5 1.5 0 0 1 1.5 1.5zm-2.25 6h.75a.997.997 0 0 0-.375.073.997.997 0 0 0-.375-.073z"/>
        <circle cx="11.25" cy="13.25" r="1.25"/>
        <circle cx="18.75" cy="13.25" r="1.25"/>
        <path fill-rule="nonzero" d="M8.812 20.875c1.642 1.232 3.715 1.842 6.188 1.842s4.546-.61 6.188-1.842a.937.937 0 1 0-1.126-1.5c-1.296.973-2.974 1.467-5.062 1.467s-3.766-.494-5.062-1.467a.937.937 0 1 0-1.126 1.5z"/>
    </g>
</svg>
