<svg xmlns="http://www.w3.org/2000/svg" width="27" height="30" viewBox="0 0 27 30">
    <path fill="#006BE6" fill-rule="nonzero" d="M13.19 14.634A7.317 7.317 0 1 1 13.19 0a7.317 7.317 0 0 1 0 14.634zm0-2.927a4.39 4.39 0 1 0 0-8.78 4.39 4.39 0 0 0 0 8.78zM2.922 28.658a1.463 1.463 0 1 1-2.917-.243c.24-2.861 1.3-5.429 3.165-7.666 2.723-3.268 6.316-4.437 10.02-4.437 3.475 0 7.413 1.337 10.046 4.424 1.768 2.072 2.834 4.626 3.198 7.624a1.463 1.463 0 1 1-2.906.353c-.297-2.444-1.137-4.458-2.519-6.078-1.99-2.333-5.122-3.396-7.819-3.396-2.92 0-5.708.906-7.772 3.384C3.937 24.4 3.111 26.4 2.922 28.658z"/>
</svg>
