<?xml version="1.0" encoding="UTF-8"?>
<svg width="290px" height="44px" viewBox="0 0 290 44" version="1.1" xmlns="http://www.w3.org/2000/svg" xmlns:xlink="http://www.w3.org/1999/xlink">
    <!-- Generator: Sketch 64 (93537) - https://sketch.com -->
    <title>LogoObservatoire</title>
    <desc>Created with Sketch.</desc>
    <g id="Symbols" stroke="none" stroke-width="1" fill="none" fill-rule="evenodd">
        <g id="NewNavigation-Copy-20" transform="translate(-190.000000, -59.000000)" fill="#000000" fill-rule="nonzero">
            <g id="Group-4" transform="translate(0.000000, 30.000000)">
                <g id="LogoObservatoire" transform="translate(190.000000, 29.000000)">
                    <g id="Group-2">
                        <path d="M9.638,17 L9.638,13.458 L4.05,13.458 L4.05,1.6 L0.134,1.6 L0.134,17 L9.638,17 Z M12.046,8.244 L14.818,1.6 L10.902,1.6 L8.812,8.244 L12.046,8.244 Z M23.078,17.44 C24.2953333,17.44 25.41,17.22 26.422,16.78 C27.434,16.34 28.2993333,15.7533333 29.018,15.02 C29.7366667,14.2866667 30.2976667,13.425 30.701,12.435 C31.1043333,11.445 31.306,10.4 31.306,9.3 C31.306,8.2 31.1043333,7.155 30.701,6.165 C30.2976667,5.175 29.7366667,4.31333333 29.018,3.58 C28.2993333,2.84666667 27.434,2.26 26.422,1.82 C25.41,1.38 24.2953333,1.16 23.078,1.16 C21.8606667,1.16 20.7423333,1.38 19.723,1.82 C18.7036667,2.26 17.8346667,2.84666667 17.116,3.58 C16.3973333,4.31333333 15.8363333,5.175 15.433,6.165 C15.0296667,7.155 14.828,8.2 14.828,9.3 C14.828,10.4 15.0296667,11.445 15.433,12.435 C15.8363333,13.425 16.3973333,14.2866667 17.116,15.02 C17.8346667,15.7533333 18.7036667,16.34 19.723,16.78 C20.7423333,17.22 21.8606667,17.44 23.078,17.44 Z M23.078,13.766 C21.846,13.766 20.834,13.3443333 20.042,12.501 C19.25,11.6576667 18.854,10.5906667 18.854,9.3 C18.854,8.024 19.25,6.96066667 20.042,6.11 C20.834,5.25933333 21.846,4.834 23.078,4.834 C24.2953333,4.834 25.3,5.25566667 26.092,6.099 C26.884,6.94233333 27.28,8.00933333 27.28,9.3 C27.28,10.576 26.884,11.6393333 26.092,12.49 C25.3,13.3406667 24.2953333,13.766 23.078,13.766 Z M40.028,17.44 C40.908,17.44 41.6963333,17.2786667 42.393,16.956 C43.0896667,16.6333333 43.6763333,16.2006667 44.153,15.658 C44.6296667,15.1153333 44.9926667,14.481 45.242,13.755 C45.4913333,13.029 45.616,12.2626667 45.616,11.456 C45.616,10.6493333 45.4913333,9.883 45.242,9.157 C44.9926667,8.431 44.6296667,7.79666667 44.153,7.254 C43.6763333,6.71133333 43.0896667,6.27866667 42.393,5.956 C41.6963333,5.63333333 40.908,5.472 40.028,5.472 C39.3826667,5.472 38.807,5.55266667 38.301,5.714 C37.795,5.87533333 37.344,6.11 36.948,6.418 L36.948,6.418 L36.948,0.5 L33.45,0.5 L33.45,17 L36.948,17 L36.948,16.494 C37.344,16.802 37.795,17.0366667 38.301,17.198 C38.807,17.3593333 39.3826667,17.44 40.028,17.44 Z M39.522,14.162 C38.9646667,14.162 38.4806667,14.0446667 38.07,13.81 C37.6593333,13.5753333 37.2926667,13.2306667 36.97,12.776 L36.97,12.776 L36.948,12.798 L36.948,10.114 L36.97,10.136 C37.2926667,9.68133333 37.6593333,9.33666667 38.07,9.102 C38.4806667,8.86733333 38.9646667,8.75 39.522,8.75 C40.2846667,8.75 40.8896667,8.99933333 41.337,9.498 C41.7843333,9.99666667 42.008,10.6493333 42.008,11.456 C42.008,12.2626667 41.7843333,12.9153333 41.337,13.414 C40.8896667,13.9126667 40.2846667,14.162 39.522,14.162 Z M51.104,17.44 C51.632,17.44 52.149,17.3593333 52.655,17.198 C53.161,17.0366667 53.6083333,16.7983333 53.997,16.483 C54.3856667,16.1676667 54.701,15.7753333 54.943,15.306 C55.185,14.8366667 55.3133333,14.2866667 55.328,13.656 C55.328,12.6586667 55.0676667,11.918 54.547,11.434 C54.0263333,10.95 53.458,10.5833333 52.842,10.334 C52.226,10.0846667 51.6576667,9.87566667 51.137,9.707 C50.6163333,9.53833333 50.356,9.278 50.356,8.926 C50.356,8.73533333 50.4293333,8.58133333 50.576,8.464 C50.7226667,8.34666667 50.95,8.288 51.258,8.288 C51.654,8.288 52.017,8.41266667 52.347,8.662 C52.677,8.91133333 52.974,9.19 53.238,9.498 L53.238,9.498 L55.526,7.408 C55.1153333,6.86533333 54.5213333,6.407 53.744,6.033 C52.9666667,5.659 52.138,5.472 51.258,5.472 C50.0406667,5.472 49.0323333,5.813 48.233,6.495 C47.4336667,7.177 47.034,8.046 47.034,9.102 C47.034,10.0993333 47.2943333,10.84 47.815,11.324 C48.3356667,11.808 48.904,12.1783333 49.52,12.435 C50.136,12.6916667 50.7043333,12.9043333 51.225,13.073 C51.7456667,13.2416667 52.006,13.5166667 52.006,13.898 C52.006,14.118 51.929,14.294 51.775,14.426 C51.621,14.558 51.3826667,14.624 51.06,14.624 C50.5613333,14.624 50.1213333,14.481 49.74,14.195 C49.3586667,13.909 49.0213333,13.5753333 48.728,13.194 L48.728,13.194 L46.44,15.328 C46.9973333,15.9586667 47.65,16.4683333 48.398,16.857 C49.146,17.2456667 50.048,17.44 51.104,17.44 Z M62.994,17.44 C64.05,17.44 65.0033333,17.242 65.854,16.846 C66.7046667,16.45 67.394,15.9073333 67.922,15.218 L67.922,15.218 L65.458,13.26 C65.2086667,13.5826667 64.875,13.8393333 64.457,14.03 C64.039,14.2206667 63.5733333,14.316 63.06,14.316 C62.3266667,14.316 61.729,14.1583333 61.267,13.843 C60.805,13.5276667 60.5006667,13.0546667 60.354,12.424 L60.354,12.424 L67.526,12.424 C67.5846667,12.2333333 67.636,11.9693333 67.68,11.632 C67.724,11.2946667 67.746,10.9426667 67.746,10.576 C67.746,9.08 67.2693333,7.85533333 66.316,6.902 C65.3626667,5.94866667 64.1013333,5.472 62.532,5.472 C61.5933333,5.472 60.7646667,5.63333333 60.046,5.956 C59.3273333,6.27866667 58.726,6.71133333 58.242,7.254 C57.758,7.79666667 57.3913333,8.43466667 57.142,9.168 C56.8926667,9.90133333 56.768,10.664 56.768,11.456 C56.768,12.2626667 56.9036667,13.029 57.175,13.755 C57.4463333,14.481 57.8423333,15.1153333 58.363,15.658 C58.8836667,16.2006667 59.5326667,16.6333333 60.31,16.956 C61.0873333,17.2786667 61.982,17.44 62.994,17.44 Z M64.314,9.85 L60.486,9.85 C60.6473333,9.30733333 60.9003333,8.92233333 61.245,8.695 C61.5896667,8.46766667 62.0186667,8.354 62.532,8.354 C63.1333333,8.354 63.577,8.51166667 63.863,8.827 C64.149,9.14233333 64.2993333,9.48333333 64.314,9.85 L64.314,9.85 Z M73.52,17 L73.52,10.488 C73.6226667,10.2973333 73.8793333,10.0626667 74.29,9.784 C74.7006667,9.50533333 75.2213333,9.366 75.852,9.366 C76.1306667,9.366 76.38,9.38066667 76.6,9.41 C76.82,9.43933333 77.0253333,9.476 77.216,9.52 L77.216,9.52 L77.216,5.846 C77.084,5.802 76.93,5.76533333 76.754,5.736 C76.578,5.70666667 76.3946667,5.692 76.204,5.692 C75.632,5.692 75.126,5.79833333 74.686,6.011 C74.246,6.22366667 73.8573333,6.49133333 73.52,6.814 L73.52,6.814 L73.52,5.912 L70.022,5.912 L70.022,17 L73.52,17 Z M86.532,17 L90.338,5.912 L86.598,5.912 L84.244,12.798 L81.868,5.912 L78.128,5.912 L81.934,17 L86.532,17 Z M94.638,17.44 C95.2246667,17.44 95.793,17.3226667 96.343,17.088 C96.893,16.8533333 97.322,16.5526667 97.63,16.186 L97.63,16.186 L97.63,17 L101.15,17 L101.15,10.004 C101.15,9.40266667 101.047333,8.827 100.842,8.277 C100.636667,7.727 100.321333,7.24666667 99.896,6.836 C99.4706667,6.42533333 98.9353333,6.09533333 98.29,5.846 C97.6446667,5.59666667 96.882,5.472 96.002,5.472 C94.9753333,5.472 94.0476667,5.67 93.219,6.066 C92.3903333,6.462 91.7266667,7.012 91.228,7.716 L91.228,7.716 L93.78,9.652 C93.9853333,9.27066667 94.275,8.981 94.649,8.783 C95.023,8.585 95.4373333,8.486 95.892,8.486 C96.3906667,8.486 96.8013333,8.629 97.124,8.915 C97.4466667,9.201 97.6153333,9.54933333 97.63,9.96 L97.63,9.96 L94.55,10.488 C93.3473333,10.6933333 92.427,11.1076667 91.789,11.731 C91.151,12.3543333 90.832,13.0913333 90.832,13.942 C90.832,15.0273333 91.1876667,15.8816667 91.899,16.505 C92.6103333,17.1283333 93.5233333,17.44 94.638,17.44 Z M95.408,14.668 C95.0706667,14.668 94.7956667,14.5873333 94.583,14.426 C94.3703333,14.2646667 94.264,14.0446667 94.264,13.766 C94.264,13.5166667 94.3556667,13.3113333 94.539,13.15 C94.7223333,12.9886667 95.0413333,12.8713333 95.496,12.798 L95.496,12.798 L97.63,12.446 L97.63,13.436 C97.41,13.7733333 97.1203333,14.063 96.761,14.305 C96.4016667,14.547 95.9506667,14.668 95.408,14.668 Z M108.838,17.22 C109.351333,17.22 109.791333,17.187 110.158,17.121 C110.524667,17.055 110.854667,16.956 111.148,16.824 L111.148,16.824 L111.148,13.81 C110.986667,13.8686667 110.770333,13.9236667 110.499,13.975 C110.227667,14.0263333 109.886667,14.052 109.476,14.052 C109.021333,14.052 108.676667,13.9346667 108.442,13.7 C108.207333,13.4653333 108.09,13.128 108.09,12.688 L108.09,12.688 L108.09,9.08 L111.126,9.08 L111.126,5.912 L108.09,5.912 L108.09,3.14 L104.57,3.14 L104.57,5.912 L102.502,5.912 L102.502,9.08 L104.57,9.08 L104.57,12.688 C104.57,14.052 104.907333,15.1483333 105.582,15.977 C106.256667,16.8056667 107.342,17.22 108.838,17.22 Z M118.506,17.44 C119.415333,17.44 120.244,17.286 120.992,16.978 C121.74,16.67 122.381667,16.2483333 122.917,15.713 C123.452333,15.1776667 123.870333,14.5433333 124.171,13.81 C124.471667,13.0766667 124.622,12.292 124.622,11.456 C124.622,10.62 124.471667,9.83533333 124.171,9.102 C123.870333,8.36866667 123.452333,7.73433333 122.917,7.199 C122.381667,6.66366667 121.74,6.242 120.992,5.934 C120.244,5.626 119.415333,5.472 118.506,5.472 C117.596667,5.472 116.764333,5.626 116.009,5.934 C115.253667,6.242 114.608333,6.66366667 114.073,7.199 C113.537667,7.73433333 113.119667,8.36866667 112.819,9.102 C112.518333,9.83533333 112.368,10.62 112.368,11.456 C112.368,12.292 112.518333,13.0766667 112.819,13.81 C113.119667,14.5433333 113.537667,15.1776667 114.073,15.713 C114.608333,16.2483333 115.253667,16.67 116.009,16.978 C116.764333,17.286 117.596667,17.44 118.506,17.44 Z M118.528,14.162 C117.809333,14.162 117.208,13.9163333 116.724,13.425 C116.24,12.9336667 115.998,12.2773333 115.998,11.456 C115.998,10.6346667 116.24,9.97833333 116.724,9.487 C117.208,8.99566667 117.809333,8.75 118.528,8.75 C119.232,8.75 119.822333,8.992 120.299,9.476 C120.775667,9.96 121.014,10.62 121.014,11.456 C121.014,12.2626667 120.775667,12.9153333 120.299,13.414 C119.822333,13.9126667 119.232,14.162 118.528,14.162 Z M128.504,4.702 C129.090667,4.702 129.600333,4.47833333 130.033,4.031 C130.465667,3.58366667 130.682,3.06666667 130.682,2.48 C130.682,1.89333333 130.465667,1.38 130.033,0.94 C129.600333,0.5 129.090667,0.28 128.504,0.28 C127.902667,0.28 127.382,0.5 126.942,0.94 C126.502,1.38 126.282,1.89333333 126.282,2.48 C126.282,3.06666667 126.502,3.58366667 126.942,4.031 C127.382,4.47833333 127.902667,4.702 128.504,4.702 Z M130.22,17 L130.22,5.912 L126.722,5.912 L126.722,17 L130.22,17 Z M136.478,17 L136.478,10.488 C136.580667,10.2973333 136.837333,10.0626667 137.248,9.784 C137.658667,9.50533333 138.179333,9.366 138.81,9.366 C139.088667,9.366 139.338,9.38066667 139.558,9.41 C139.778,9.43933333 139.983333,9.476 140.174,9.52 L140.174,9.52 L140.174,5.846 C140.042,5.802 139.888,5.76533333 139.712,5.736 C139.536,5.70666667 139.352667,5.692 139.162,5.692 C138.59,5.692 138.084,5.79833333 137.644,6.011 C137.204,6.22366667 136.815333,6.49133333 136.478,6.814 L136.478,6.814 L136.478,5.912 L132.98,5.912 L132.98,17 L136.478,17 Z M147.4,17.44 C148.456,17.44 149.409333,17.242 150.26,16.846 C151.110667,16.45 151.8,15.9073333 152.328,15.218 L152.328,15.218 L149.864,13.26 C149.614667,13.5826667 149.281,13.8393333 148.863,14.03 C148.445,14.2206667 147.979333,14.316 147.466,14.316 C146.732667,14.316 146.135,14.1583333 145.673,13.843 C145.211,13.5276667 144.906667,13.0546667 144.76,12.424 L144.76,12.424 L151.932,12.424 C151.990667,12.2333333 152.042,11.9693333 152.086,11.632 C152.13,11.2946667 152.152,10.9426667 152.152,10.576 C152.152,9.08 151.675333,7.85533333 150.722,6.902 C149.768667,5.94866667 148.507333,5.472 146.938,5.472 C145.999333,5.472 145.170667,5.63333333 144.452,5.956 C143.733333,6.27866667 143.132,6.71133333 142.648,7.254 C142.164,7.79666667 141.797333,8.43466667 141.548,9.168 C141.298667,9.90133333 141.174,10.664 141.174,11.456 C141.174,12.2626667 141.309667,13.029 141.581,13.755 C141.852333,14.481 142.248333,15.1153333 142.769,15.658 C143.289667,16.2006667 143.938667,16.6333333 144.716,16.956 C145.493333,17.2786667 146.388,17.44 147.4,17.44 Z M148.72,9.85 L144.892,9.85 C145.053333,9.30733333 145.306333,8.92233333 145.651,8.695 C145.995667,8.46766667 146.424667,8.354 146.938,8.354 C147.539333,8.354 147.983,8.51166667 148.269,8.827 C148.555,9.14233333 148.705333,9.48333333 148.72,9.85 L148.72,9.85 Z M165.196,17.44 C165.826667,17.44 166.395,17.3593333 166.901,17.198 C167.407,17.0366667 167.858,16.8093333 168.254,16.516 L168.254,16.516 L168.254,17 L171.774,17 L171.774,0.5 L168.254,0.5 L168.254,6.396 C167.858,6.10266667 167.407,5.87533333 166.901,5.714 C166.395,5.55266667 165.826667,5.472 165.196,5.472 C164.316,5.472 163.527667,5.63333333 162.831,5.956 C162.134333,6.27866667 161.551333,6.71133333 161.082,7.254 C160.612667,7.79666667 160.249667,8.431 159.993,9.157 C159.736333,9.883 159.608,10.6493333 159.608,11.456 C159.608,12.2626667 159.736333,13.029 159.993,13.755 C160.249667,14.481 160.612667,15.1153333 161.082,15.658 C161.551333,16.2006667 162.134333,16.6333333 162.831,16.956 C163.527667,17.2786667 164.316,17.44 165.196,17.44 Z M165.702,14.162 C164.939333,14.162 164.338,13.9126667 163.898,13.414 C163.458,12.9153333 163.238,12.2626667 163.238,11.456 C163.238,10.6493333 163.458,9.99666667 163.898,9.498 C164.338,8.99933333 164.939333,8.75 165.702,8.75 C166.244667,8.75 166.725,8.86733333 167.143,9.102 C167.561,9.33666667 167.931333,9.674 168.254,10.114 L168.254,10.114 L168.254,12.798 C167.931333,13.238 167.564667,13.5753333 167.154,13.81 C166.743333,14.0446667 166.259333,14.162 165.702,14.162 Z M180.1,17.44 C181.156,17.44 182.109333,17.242 182.96,16.846 C183.810667,16.45 184.5,15.9073333 185.028,15.218 L185.028,15.218 L182.564,13.26 C182.314667,13.5826667 181.981,13.8393333 181.563,14.03 C181.145,14.2206667 180.679333,14.316 180.166,14.316 C179.432667,14.316 178.835,14.1583333 178.373,13.843 C177.911,13.5276667 177.606667,13.0546667 177.46,12.424 L177.46,12.424 L184.632,12.424 C184.690667,12.2333333 184.742,11.9693333 184.786,11.632 C184.83,11.2946667 184.852,10.9426667 184.852,10.576 C184.852,9.08 184.375333,7.85533333 183.422,6.902 C182.468667,5.94866667 181.207333,5.472 179.638,5.472 C178.699333,5.472 177.870667,5.63333333 177.152,5.956 C176.433333,6.27866667 175.832,6.71133333 175.348,7.254 C174.864,7.79666667 174.497333,8.43466667 174.248,9.168 C173.998667,9.90133333 173.874,10.664 173.874,11.456 C173.874,12.2626667 174.009667,13.029 174.281,13.755 C174.552333,14.481 174.948333,15.1153333 175.469,15.658 C175.989667,16.2006667 176.638667,16.6333333 177.416,16.956 C178.193333,17.2786667 179.088,17.44 180.1,17.44 Z M181.42,9.85 L177.592,9.85 C177.753333,9.30733333 178.006333,8.92233333 178.351,8.695 C178.695667,8.46766667 179.124667,8.354 179.638,8.354 C180.239333,8.354 180.683,8.51166667 180.969,8.827 C181.255,9.14233333 181.405333,9.48333333 181.42,9.85 L181.42,9.85 Z M196.466,17 L196.466,0.5 L192.968,0.5 L192.968,17 L196.466,17 Z M202.504,17.44 C203.090667,17.44 203.659,17.3226667 204.209,17.088 C204.759,16.8533333 205.188,16.5526667 205.496,16.186 L205.496,16.186 L205.496,17 L209.016,17 L209.016,10.004 C209.016,9.40266667 208.913333,8.827 208.708,8.277 C208.502667,7.727 208.187333,7.24666667 207.762,6.836 C207.336667,6.42533333 206.801333,6.09533333 206.156,5.846 C205.510667,5.59666667 204.748,5.472 203.868,5.472 C202.841333,5.472 201.913667,5.67 201.085,6.066 C200.256333,6.462 199.592667,7.012 199.094,7.716 L199.094,7.716 L201.646,9.652 C201.851333,9.27066667 202.141,8.981 202.515,8.783 C202.889,8.585 203.303333,8.486 203.758,8.486 C204.256667,8.486 204.667333,8.629 204.99,8.915 C205.312667,9.201 205.481333,9.54933333 205.496,9.96 L205.496,9.96 L202.416,10.488 C201.213333,10.6933333 200.293,11.1076667 199.655,11.731 C199.017,12.3543333 198.698,13.0913333 198.698,13.942 C198.698,15.0273333 199.053667,15.8816667 199.765,16.505 C200.476333,17.1283333 201.389333,17.44 202.504,17.44 Z M203.274,14.668 C202.936667,14.668 202.661667,14.5873333 202.449,14.426 C202.236333,14.2646667 202.13,14.0446667 202.13,13.766 C202.13,13.5166667 202.221667,13.3113333 202.405,13.15 C202.588333,12.9886667 202.907333,12.8713333 203.362,12.798 L203.362,12.798 L205.496,12.446 L205.496,13.436 C205.276,13.7733333 204.986333,14.063 204.627,14.305 C204.267667,14.547 203.816667,14.668 203.274,14.668 Z M229.012,22.412 L229.012,5.912 L225.492,5.912 L225.492,6.418 C225.096,6.11 224.645,5.87533333 224.139,5.714 C223.633,5.55266667 223.057333,5.472 222.412,5.472 C221.532,5.472 220.743667,5.63333333 220.047,5.956 C219.350333,6.27866667 218.767333,6.71133333 218.298,7.254 C217.828667,7.79666667 217.465667,8.431 217.209,9.157 C216.952333,9.883 216.824,10.6493333 216.824,11.456 C216.824,12.2626667 216.952333,13.029 217.209,13.755 C217.465667,14.481 217.828667,15.1153333 218.298,15.658 C218.767333,16.2006667 219.350333,16.6333333 220.047,16.956 C220.743667,17.2786667 221.532,17.44 222.412,17.44 C223.057333,17.44 223.633,17.3593333 224.139,17.198 C224.645,17.0366667 225.096,16.802 225.492,16.494 L225.492,16.494 L225.492,22.412 L229.012,22.412 Z M222.918,14.162 C222.155333,14.162 221.550333,13.9126667 221.103,13.414 C220.655667,12.9153333 220.432,12.2626667 220.432,11.456 C220.432,10.6493333 220.655667,9.99666667 221.103,9.498 C221.550333,8.99933333 222.155333,8.75 222.918,8.75 C223.475333,8.75 223.963,8.86733333 224.381,9.102 C224.799,9.33666667 225.169333,9.68133333 225.492,10.136 L225.492,10.136 L225.492,12.776 C225.169333,13.2306667 224.799,13.5753333 224.381,13.81 C223.963,14.0446667 223.475333,14.162 222.918,14.162 Z M236.898,17.44 C238.599333,17.44 239.923,16.945 240.869,15.955 C241.815,14.965 242.288,13.6413333 242.288,11.984 L242.288,11.984 L242.288,5.912 L238.768,5.912 L238.768,12.182 C238.768,12.7686667 238.617667,13.2453333 238.317,13.612 C238.016333,13.9786667 237.550667,14.162 236.92,14.162 C236.274667,14.162 235.801667,13.9786667 235.501,13.612 C235.200333,13.2453333 235.05,12.7686667 235.05,12.182 L235.05,12.182 L235.05,5.912 L231.53,5.912 L231.53,11.984 C231.53,13.6413333 231.995667,14.965 232.927,15.955 C233.858333,16.945 235.182,17.44 236.898,17.44 Z M247.886,17.44 C248.472667,17.44 249.041,17.3226667 249.591,17.088 C250.141,16.8533333 250.57,16.5526667 250.878,16.186 L250.878,16.186 L250.878,17 L254.398,17 L254.398,10.004 C254.398,9.40266667 254.295333,8.827 254.09,8.277 C253.884667,7.727 253.569333,7.24666667 253.144,6.836 C252.718667,6.42533333 252.183333,6.09533333 251.538,5.846 C250.892667,5.59666667 250.13,5.472 249.25,5.472 C248.223333,5.472 247.295667,5.67 246.467,6.066 C245.638333,6.462 244.974667,7.012 244.476,7.716 L244.476,7.716 L247.028,9.652 C247.233333,9.27066667 247.523,8.981 247.897,8.783 C248.271,8.585 248.685333,8.486 249.14,8.486 C249.638667,8.486 250.049333,8.629 250.372,8.915 C250.694667,9.201 250.863333,9.54933333 250.878,9.96 L250.878,9.96 L247.798,10.488 C246.595333,10.6933333 245.675,11.1076667 245.037,11.731 C244.399,12.3543333 244.08,13.0913333 244.08,13.942 C244.08,15.0273333 244.435667,15.8816667 245.147,16.505 C245.858333,17.1283333 246.771333,17.44 247.886,17.44 Z M248.656,14.668 C248.318667,14.668 248.043667,14.5873333 247.831,14.426 C247.618333,14.2646667 247.512,14.0446667 247.512,13.766 C247.512,13.5166667 247.603667,13.3113333 247.787,13.15 C247.970333,12.9886667 248.289333,12.8713333 248.744,12.798 L248.744,12.798 L250.878,12.446 L250.878,13.436 C250.658,13.7733333 250.368333,14.063 250.009,14.305 C249.649667,14.547 249.198667,14.668 248.656,14.668 Z M260.546,17 L260.546,0.5 L257.048,0.5 L257.048,17 L260.546,17 Z M265.088,4.702 C265.674667,4.702 266.184333,4.47833333 266.617,4.031 C267.049667,3.58366667 267.266,3.06666667 267.266,2.48 C267.266,1.89333333 267.049667,1.38 266.617,0.94 C266.184333,0.5 265.674667,0.28 265.088,0.28 C264.486667,0.28 263.966,0.5 263.526,0.94 C263.086,1.38 262.866,1.89333333 262.866,2.48 C262.866,3.06666667 263.086,3.58366667 263.526,4.031 C263.966,4.47833333 264.486667,4.702 265.088,4.702 Z M266.804,17 L266.804,5.912 L263.306,5.912 L263.306,17 L266.804,17 Z M274.602,17.22 C275.115333,17.22 275.555333,17.187 275.922,17.121 C276.288667,17.055 276.618667,16.956 276.912,16.824 L276.912,16.824 L276.912,13.81 C276.750667,13.8686667 276.534333,13.9236667 276.263,13.975 C275.991667,14.0263333 275.650667,14.052 275.24,14.052 C274.785333,14.052 274.440667,13.9346667 274.206,13.7 C273.971333,13.4653333 273.854,13.128 273.854,12.688 L273.854,12.688 L273.854,9.08 L276.89,9.08 L276.89,5.912 L273.854,5.912 L273.854,3.14 L270.334,3.14 L270.334,5.912 L268.266,5.912 L268.266,9.08 L270.334,9.08 L270.334,12.688 C270.334,14.052 270.671333,15.1483333 271.346,15.977 C272.020667,16.8056667 273.106,17.22 274.602,17.22 Z M285.854,4.152 L288.538,0.5 L284.798,0.5 L282.532,4.152 L285.854,4.152 Z M284.358,17.44 C285.414,17.44 286.367333,17.242 287.218,16.846 C288.068667,16.45 288.758,15.9073333 289.286,15.218 L289.286,15.218 L286.822,13.26 C286.572667,13.5826667 286.239,13.8393333 285.821,14.03 C285.403,14.2206667 284.937333,14.316 284.424,14.316 C283.690667,14.316 283.093,14.1583333 282.631,13.843 C282.169,13.5276667 281.864667,13.0546667 281.718,12.424 L281.718,12.424 L288.89,12.424 C288.948667,12.2333333 289,11.9693333 289.044,11.632 C289.088,11.2946667 289.11,10.9426667 289.11,10.576 C289.11,9.08 288.633333,7.85533333 287.68,6.902 C286.726667,5.94866667 285.465333,5.472 283.896,5.472 C282.957333,5.472 282.128667,5.63333333 281.41,5.956 C280.691333,6.27866667 280.09,6.71133333 279.606,7.254 C279.122,7.79666667 278.755333,8.43466667 278.506,9.168 C278.256667,9.90133333 278.132,10.664 278.132,11.456 C278.132,12.2626667 278.267667,13.029 278.539,13.755 C278.810333,14.481 279.206333,15.1153333 279.727,15.658 C280.247667,16.2006667 280.896667,16.6333333 281.674,16.956 C282.451333,17.2786667 283.346,17.44 284.358,17.44 Z M285.678,9.85 L281.85,9.85 C282.011333,9.30733333 282.264333,8.92233333 282.609,8.695 C282.953667,8.46766667 283.382667,8.354 283.896,8.354 C284.497333,8.354 284.941,8.51166667 285.227,8.827 C285.513,9.14233333 285.663333,9.48333333 285.678,9.85 L285.678,9.85 Z" id="L’Observatoiredelaqualité"/>
                        <path d="M5.328,39.36 C5.916,39.36 6.441,39.273 6.903,39.099 C7.365,38.925 7.776,38.682 8.136,38.37 L8.136,38.37 L8.136,39 L10.44,39 L10.44,25.5 L8.136,25.5 L8.136,30.558 C7.776,30.246 7.365,30.003 6.903,29.829 C6.441,29.655 5.916,29.568 5.328,29.568 C4.62,29.568 3.978,29.7 3.402,29.964 C2.826,30.228 2.34,30.582 1.944,31.026 C1.548,31.47 1.245,31.989 1.035,32.583 C0.825,33.177 0.72,33.804 0.72,34.464 C0.72,35.124 0.825,35.751 1.035,36.345 C1.245,36.939 1.548,37.458 1.944,37.902 C2.34,38.346 2.826,38.7 3.402,38.964 C3.978,39.228 4.62,39.36 5.328,39.36 Z M5.652,37.2 C4.884,37.2 4.269,36.942 3.807,36.426 C3.345,35.91 3.114,35.256 3.114,34.464 C3.114,33.672 3.345,33.018 3.807,32.502 C4.269,31.986 4.884,31.728 5.652,31.728 C6.168,31.728 6.636,31.842 7.056,32.07 C7.476,32.298 7.836,32.634 8.136,33.078 L8.136,33.078 L8.136,35.85 C7.836,36.294 7.479,36.63 7.065,36.858 C6.651,37.086 6.18,37.2 5.652,37.2 Z M17.368,39.36 C18.22,39.36 18.988,39.195 19.672,38.865 C20.356,38.535 20.908,38.088 21.328,37.524 L21.328,37.524 L19.69,36.228 C19.45,36.552 19.132,36.813 18.736,37.011 C18.34,37.209 17.896,37.308 17.404,37.308 C16.636,37.308 16.006,37.098 15.514,36.678 C15.022,36.258 14.74,35.676 14.668,34.932 L14.668,34.932 L21.022,34.932 C21.058,34.776 21.091,34.584 21.121,34.356 C21.151,34.128 21.166,33.888 21.166,33.636 C21.166,32.448 20.782,31.473 20.014,30.711 C19.246,29.949 18.238,29.568 16.99,29.568 C16.246,29.568 15.586,29.697 15.01,29.955 C14.434,30.213 13.948,30.564 13.552,31.008 C13.156,31.452 12.853,31.971 12.643,32.565 C12.433,33.159 12.328,33.792 12.328,34.464 C12.328,35.124 12.439,35.751 12.661,36.345 C12.883,36.939 13.207,37.458 13.633,37.902 C14.059,38.346 14.587,38.7 15.217,38.964 C15.847,39.228 16.564,39.36 17.368,39.36 Z M18.898,33.204 L14.812,33.204 C14.968,32.616 15.232,32.181 15.604,31.899 C15.976,31.617 16.438,31.476 16.99,31.476 C17.59,31.476 18.055,31.653 18.385,32.007 C18.715,32.361 18.886,32.76 18.898,33.204 L18.898,33.204 Z M25.916,39.36 C26.336,39.36 26.744,39.294 27.14,39.162 C27.536,39.03 27.884,38.841 28.184,38.595 C28.484,38.349 28.724,38.043 28.904,37.677 C29.084,37.311 29.18,36.888 29.192,36.408 C29.192,35.604 28.97,35.007 28.526,34.617 C28.082,34.227 27.599,33.924 27.077,33.708 C26.555,33.492 26.072,33.294 25.628,33.114 C25.184,32.934 24.962,32.652 24.962,32.268 C24.962,32.016 25.052,31.815 25.232,31.665 C25.412,31.515 25.67,31.44 26.006,31.44 C26.366,31.44 26.696,31.539 26.996,31.737 C27.296,31.935 27.56,32.184 27.788,32.484 L27.788,32.484 L29.318,31.116 C28.982,30.672 28.517,30.303 27.923,30.009 C27.329,29.715 26.684,29.568 25.988,29.568 C25.052,29.568 24.281,29.835 23.675,30.369 C23.069,30.903 22.766,31.566 22.766,32.358 C22.766,33.174 22.988,33.777 23.432,34.167 C23.876,34.557 24.359,34.863 24.881,35.085 C25.403,35.307 25.886,35.508 26.33,35.688 C26.774,35.868 26.996,36.156 26.996,36.552 C26.996,36.816 26.9,37.038 26.708,37.218 C26.516,37.398 26.24,37.488 25.88,37.488 C25.448,37.488 25.061,37.374 24.719,37.146 C24.377,36.918 24.068,36.63 23.792,36.282 L23.792,36.282 L22.28,37.686 C22.712,38.202 23.225,38.61 23.819,38.91 C24.413,39.21 25.112,39.36 25.916,39.36 Z M39.718,39.36 C40.306,39.36 40.831,39.273 41.293,39.099 C41.755,38.925 42.166,38.682 42.526,38.37 L42.526,38.37 L42.526,39 L44.83,39 L44.83,25.5 L42.526,25.5 L42.526,30.558 C42.166,30.246 41.755,30.003 41.293,29.829 C40.831,29.655 40.306,29.568 39.718,29.568 C39.01,29.568 38.368,29.7 37.792,29.964 C37.216,30.228 36.73,30.582 36.334,31.026 C35.938,31.47 35.635,31.989 35.425,32.583 C35.215,33.177 35.11,33.804 35.11,34.464 C35.11,35.124 35.215,35.751 35.425,36.345 C35.635,36.939 35.938,37.458 36.334,37.902 C36.73,38.346 37.216,38.7 37.792,38.964 C38.368,39.228 39.01,39.36 39.718,39.36 Z M40.042,37.2 C39.274,37.2 38.659,36.942 38.197,36.426 C37.735,35.91 37.504,35.256 37.504,34.464 C37.504,33.672 37.735,33.018 38.197,32.502 C38.659,31.986 39.274,31.728 40.042,31.728 C40.558,31.728 41.026,31.842 41.446,32.07 C41.866,32.298 42.226,32.634 42.526,33.078 L42.526,33.078 L42.526,35.85 C42.226,36.294 41.869,36.63 41.455,36.858 C41.041,37.086 40.57,37.2 40.042,37.2 Z M52.64,28.488 L54.8,25.5 L52.316,25.5 L50.444,28.488 L52.64,28.488 Z M51.758,39.36 C52.61,39.36 53.378,39.195 54.062,38.865 C54.746,38.535 55.298,38.088 55.718,37.524 L55.718,37.524 L54.08,36.228 C53.84,36.552 53.522,36.813 53.126,37.011 C52.73,37.209 52.286,37.308 51.794,37.308 C51.026,37.308 50.396,37.098 49.904,36.678 C49.412,36.258 49.13,35.676 49.058,34.932 L49.058,34.932 L55.412,34.932 C55.448,34.776 55.481,34.584 55.511,34.356 C55.541,34.128 55.556,33.888 55.556,33.636 C55.556,32.448 55.172,31.473 54.404,30.711 C53.636,29.949 52.628,29.568 51.38,29.568 C50.636,29.568 49.976,29.697 49.4,29.955 C48.824,30.213 48.338,30.564 47.942,31.008 C47.546,31.452 47.243,31.971 47.033,32.565 C46.823,33.159 46.718,33.792 46.718,34.464 C46.718,35.124 46.829,35.751 47.051,36.345 C47.273,36.939 47.597,37.458 48.023,37.902 C48.449,38.346 48.977,38.7 49.607,38.964 C50.237,39.228 50.954,39.36 51.758,39.36 Z M53.288,33.204 L49.202,33.204 C49.358,32.616 49.622,32.181 49.994,31.899 C50.366,31.617 50.828,31.476 51.38,31.476 C51.98,31.476 52.445,31.653 52.775,32.007 C53.105,32.361 53.276,32.76 53.288,33.204 L53.288,33.204 Z M59.874,39 L59.874,33.078 C60.042,32.79 60.276,32.493 60.576,32.187 C60.876,31.881 61.284,31.728 61.8,31.728 C62.316,31.728 62.712,31.887 62.988,32.205 C63.264,32.523 63.402,32.958 63.402,33.51 L63.402,33.51 L63.402,39 L65.724,39 L65.724,33.222 C65.724,33.15 65.718,33.084 65.706,33.024 C65.886,32.724 66.126,32.433 66.426,32.151 C66.726,31.869 67.116,31.728 67.596,31.728 C68.112,31.728 68.511,31.887 68.793,32.205 C69.075,32.523 69.216,32.958 69.216,33.51 L69.216,33.51 L69.216,39 L71.52,39 L71.52,33.42 C71.52,32.784 71.433,32.223 71.259,31.737 C71.085,31.251 70.848,30.849 70.548,30.531 C70.248,30.213 69.894,29.973 69.486,29.811 C69.078,29.649 68.64,29.568 68.172,29.568 C67.464,29.568 66.876,29.73 66.408,30.054 C65.94,30.378 65.538,30.744 65.202,31.152 C64.902,30.636 64.503,30.243 64.005,29.973 C63.507,29.703 62.964,29.568 62.376,29.568 C61.824,29.568 61.344,29.667 60.936,29.865 C60.528,30.063 60.174,30.312 59.874,30.612 L59.874,30.612 L59.874,29.928 L57.588,29.928 L57.588,39 L59.874,39 Z M76.522,39.36 C77.05,39.36 77.56,39.249 78.052,39.027 C78.544,38.805 78.934,38.514 79.222,38.154 L79.222,38.154 L79.222,39 L81.526,39 L81.526,33.132 C81.526,32.64 81.442,32.175 81.274,31.737 C81.106,31.299 80.857,30.921 80.527,30.603 C80.197,30.285 79.78,30.033 79.276,29.847 C78.772,29.661 78.196,29.568 77.548,29.568 C76.732,29.568 75.997,29.73 75.343,30.054 C74.689,30.378 74.158,30.816 73.75,31.368 L73.75,31.368 L75.442,32.646 C75.646,32.298 75.925,32.031 76.279,31.845 C76.633,31.659 77.032,31.566 77.476,31.566 C77.992,31.566 78.412,31.707 78.736,31.989 C79.06,32.271 79.222,32.652 79.222,33.132 L79.222,33.132 L79.222,33.366 L76.486,33.834 C75.514,33.99 74.767,34.32 74.245,34.824 C73.723,35.328 73.462,35.922 73.462,36.606 C73.462,37.458 73.747,38.13 74.317,38.622 C74.887,39.114 75.622,39.36 76.522,39.36 Z M76.99,37.524 C76.606,37.524 76.3,37.428 76.072,37.236 C75.844,37.044 75.73,36.804 75.73,36.516 C75.73,36.228 75.835,35.988 76.045,35.796 C76.255,35.604 76.6,35.466 77.08,35.382 L77.08,35.382 L79.222,35.004 L79.222,36.246 C78.994,36.618 78.694,36.924 78.322,37.164 C77.95,37.404 77.506,37.524 76.99,37.524 Z M86.222,39 L86.222,33.312 C86.39,33.036 86.657,32.772 87.023,32.52 C87.389,32.268 87.848,32.142 88.4,32.142 C88.604,32.142 88.787,32.154 88.949,32.178 C89.111,32.202 89.264,32.232 89.408,32.268 L89.408,32.268 L89.408,29.874 C89.3,29.838 89.18,29.808 89.048,29.784 C88.916,29.76 88.772,29.748 88.616,29.748 C88.1,29.748 87.647,29.853 87.257,30.063 C86.867,30.273 86.522,30.528 86.222,30.828 L86.222,30.828 L86.222,29.928 L83.936,29.928 L83.936,39 L86.222,39 Z M95.148,39.36 C95.976,39.36 96.717,39.192 97.371,38.856 C98.025,38.52 98.562,38.076 98.982,37.524 L98.982,37.524 L97.164,36.138 C96.948,36.45 96.669,36.705 96.327,36.903 C95.985,37.101 95.592,37.2 95.148,37.2 C94.392,37.2 93.765,36.942 93.267,36.426 C92.769,35.91 92.52,35.256 92.52,34.464 C92.52,33.672 92.766,33.018 93.258,32.502 C93.75,31.986 94.368,31.728 95.112,31.728 C95.58,31.728 95.985,31.827 96.327,32.025 C96.669,32.223 96.948,32.478 97.164,32.79 L97.164,32.79 L98.982,31.404 C98.562,30.852 98.025,30.408 97.371,30.072 C96.717,29.736 95.976,29.568 95.148,29.568 C94.368,29.568 93.666,29.7 93.042,29.964 C92.418,30.228 91.893,30.582 91.467,31.026 C91.041,31.47 90.714,31.989 90.486,32.583 C90.258,33.177 90.144,33.804 90.144,34.464 C90.144,35.124 90.258,35.751 90.486,36.345 C90.714,36.939 91.041,37.458 91.467,37.902 C91.893,38.346 92.418,38.7 93.042,38.964 C93.666,39.228 94.368,39.36 95.148,39.36 Z M102.778,39 L102.778,33.078 C102.946,32.79 103.195,32.493 103.525,32.187 C103.855,31.881 104.308,31.728 104.884,31.728 C105.448,31.728 105.886,31.905 106.198,32.259 C106.51,32.613 106.666,33.09 106.666,33.69 L106.666,33.69 L106.666,39 L108.988,39 L108.988,33.6 C108.988,32.928 108.895,32.34 108.709,31.836 C108.523,31.332 108.271,30.912 107.953,30.576 C107.635,30.24 107.263,29.988 106.837,29.82 C106.411,29.652 105.952,29.568 105.46,29.568 C104.86,29.568 104.341,29.673 103.903,29.883 C103.465,30.093 103.09,30.348 102.778,30.648 L102.778,30.648 L102.778,25.5 L100.492,25.5 L100.492,39 L102.778,39 Z M115.772,39.36 C116.624,39.36 117.392,39.195 118.076,38.865 C118.76,38.535 119.312,38.088 119.732,37.524 L119.732,37.524 L118.094,36.228 C117.854,36.552 117.536,36.813 117.14,37.011 C116.744,37.209 116.3,37.308 115.808,37.308 C115.04,37.308 114.41,37.098 113.918,36.678 C113.426,36.258 113.144,35.676 113.072,34.932 L113.072,34.932 L119.426,34.932 C119.462,34.776 119.495,34.584 119.525,34.356 C119.555,34.128 119.57,33.888 119.57,33.636 C119.57,32.448 119.186,31.473 118.418,30.711 C117.65,29.949 116.642,29.568 115.394,29.568 C114.65,29.568 113.99,29.697 113.414,29.955 C112.838,30.213 112.352,30.564 111.956,31.008 C111.56,31.452 111.257,31.971 111.047,32.565 C110.837,33.159 110.732,33.792 110.732,34.464 C110.732,35.124 110.843,35.751 111.065,36.345 C111.287,36.939 111.611,37.458 112.037,37.902 C112.463,38.346 112.991,38.7 113.621,38.964 C114.251,39.228 114.968,39.36 115.772,39.36 Z M117.302,33.204 L113.216,33.204 C113.372,32.616 113.636,32.181 114.008,31.899 C114.38,31.617 114.842,31.476 115.394,31.476 C115.994,31.476 116.459,31.653 116.789,32.007 C117.119,32.361 117.29,32.76 117.302,33.204 L117.302,33.204 Z M124.32,39.36 C124.74,39.36 125.148,39.294 125.544,39.162 C125.94,39.03 126.288,38.841 126.588,38.595 C126.888,38.349 127.128,38.043 127.308,37.677 C127.488,37.311 127.584,36.888 127.596,36.408 C127.596,35.604 127.374,35.007 126.93,34.617 C126.486,34.227 126.003,33.924 125.481,33.708 C124.959,33.492 124.476,33.294 124.032,33.114 C123.588,32.934 123.366,32.652 123.366,32.268 C123.366,32.016 123.456,31.815 123.636,31.665 C123.816,31.515 124.074,31.44 124.41,31.44 C124.77,31.44 125.1,31.539 125.4,31.737 C125.7,31.935 125.964,32.184 126.192,32.484 L126.192,32.484 L127.722,31.116 C127.386,30.672 126.921,30.303 126.327,30.009 C125.733,29.715 125.088,29.568 124.392,29.568 C123.456,29.568 122.685,29.835 122.079,30.369 C121.473,30.903 121.17,31.566 121.17,32.358 C121.17,33.174 121.392,33.777 121.836,34.167 C122.28,34.557 122.763,34.863 123.285,35.085 C123.807,35.307 124.29,35.508 124.734,35.688 C125.178,35.868 125.4,36.156 125.4,36.552 C125.4,36.816 125.304,37.038 125.112,37.218 C124.92,37.398 124.644,37.488 124.284,37.488 C123.852,37.488 123.465,37.374 123.123,37.146 C122.781,36.918 122.472,36.63 122.196,36.282 L122.196,36.282 L120.684,37.686 C121.116,38.202 121.629,38.61 122.223,38.91 C122.817,39.21 123.516,39.36 124.32,39.36 Z M138.554,39.36 C139.406,39.36 140.174,39.195 140.858,38.865 C141.542,38.535 142.094,38.088 142.514,37.524 L142.514,37.524 L140.876,36.228 C140.636,36.552 140.318,36.813 139.922,37.011 C139.526,37.209 139.082,37.308 138.59,37.308 C137.822,37.308 137.192,37.098 136.7,36.678 C136.208,36.258 135.926,35.676 135.854,34.932 L135.854,34.932 L142.208,34.932 C142.244,34.776 142.277,34.584 142.307,34.356 C142.337,34.128 142.352,33.888 142.352,33.636 C142.352,32.448 141.968,31.473 141.2,30.711 C140.432,29.949 139.424,29.568 138.176,29.568 C137.432,29.568 136.772,29.697 136.196,29.955 C135.62,30.213 135.134,30.564 134.738,31.008 C134.342,31.452 134.039,31.971 133.829,32.565 C133.619,33.159 133.514,33.792 133.514,34.464 C133.514,35.124 133.625,35.751 133.847,36.345 C134.069,36.939 134.393,37.458 134.819,37.902 C135.245,38.346 135.773,38.7 136.403,38.964 C137.033,39.228 137.75,39.36 138.554,39.36 Z M140.084,33.204 L135.998,33.204 C136.154,32.616 136.418,32.181 136.79,31.899 C137.162,31.617 137.624,31.476 138.176,31.476 C138.776,31.476 139.241,31.653 139.571,32.007 C139.901,32.361 140.072,32.76 140.084,33.204 L140.084,33.204 Z M146.67,39 L146.67,33.078 C146.838,32.79 147.087,32.493 147.417,32.187 C147.747,31.881 148.2,31.728 148.776,31.728 C149.328,31.728 149.763,31.905 150.081,32.259 C150.399,32.613 150.558,33.09 150.558,33.69 L150.558,33.69 L150.558,39 L152.88,39 L152.88,33.6 C152.88,32.928 152.787,32.34 152.601,31.836 C152.415,31.332 152.163,30.912 151.845,30.576 C151.527,30.24 151.155,29.988 150.729,29.82 C150.303,29.652 149.844,29.568 149.352,29.568 C148.752,29.568 148.233,29.673 147.795,29.883 C147.357,30.093 146.982,30.348 146.67,30.648 L146.67,30.648 L146.67,29.928 L144.384,29.928 L144.384,39 L146.67,39 Z M162.218,39 L162.218,25.5 L159.932,25.5 L159.932,39 L162.218,39 Z M165.906,28.344 C166.314,28.344 166.662,28.197 166.95,27.903 C167.238,27.609 167.382,27.258 167.382,26.85 C167.382,26.442 167.238,26.091 166.95,25.797 C166.662,25.503 166.314,25.356 165.906,25.356 C165.498,25.356 165.147,25.503 164.853,25.797 C164.559,26.091 164.412,26.442 164.412,26.85 C164.412,27.258 164.559,27.609 164.853,27.903 C165.147,28.197 165.498,28.344 165.906,28.344 Z M167.04,39 L167.04,29.928 L164.754,29.928 L164.754,39 L167.04,39 Z M173.284,43.5 C174.748,43.5 175.906,43.164 176.758,42.492 C177.61,41.82 178.036,40.968 178.036,39.936 C178.036,39.096 177.733,38.4 177.127,37.848 C176.521,37.296 175.648,37.02 174.508,37.02 L174.508,37.02 L172.222,37.02 C172.018,37.02 171.865,36.975 171.763,36.885 C171.661,36.795 171.61,36.66 171.61,36.48 C171.61,36.384 171.637,36.285 171.691,36.183 C171.745,36.081 171.82,35.988 171.916,35.904 C172.048,35.928 172.186,35.946 172.33,35.958 C172.474,35.97 172.624,35.976 172.78,35.976 C173.368,35.976 173.89,35.892 174.346,35.724 C174.802,35.556 175.186,35.325 175.498,35.031 C175.81,34.737 176.047,34.395 176.209,34.005 C176.371,33.615 176.452,33.198 176.452,32.754 C176.452,32.598 176.443,32.448 176.425,32.304 C176.407,32.16 176.374,32.016 176.326,31.872 L176.326,31.872 L177.928,31.872 L177.928,29.928 L174.616,29.928 C174.352,29.808 174.067,29.718 173.761,29.658 C173.455,29.598 173.128,29.568 172.78,29.568 C172.216,29.568 171.709,29.652 171.259,29.82 C170.809,29.988 170.428,30.216 170.116,30.504 C169.804,30.792 169.564,31.128 169.396,31.512 C169.228,31.896 169.144,32.31 169.144,32.754 C169.144,33.258 169.249,33.726 169.459,34.158 C169.669,34.59 169.972,34.956 170.368,35.256 C170.032,35.508 169.783,35.781 169.621,36.075 C169.459,36.369 169.378,36.696 169.378,37.056 C169.378,37.284 169.426,37.515 169.522,37.749 C169.618,37.983 169.756,38.196 169.936,38.388 C169.528,38.676 169.216,39.003 169,39.369 C168.784,39.735 168.676,40.14 168.676,40.584 C168.676,41.532 169.084,42.255 169.9,42.753 C170.716,43.251 171.844,43.5 173.284,43.5 Z M172.816,34.248 C172.324,34.248 171.937,34.11 171.655,33.834 C171.373,33.558 171.232,33.198 171.232,32.754 C171.232,32.31 171.373,31.953 171.655,31.683 C171.937,31.413 172.324,31.278 172.816,31.278 C173.296,31.278 173.677,31.413 173.959,31.683 C174.241,31.953 174.382,32.31 174.382,32.754 C174.382,33.198 174.241,33.558 173.959,33.834 C173.677,34.11 173.296,34.248 172.816,34.248 Z M173.266,41.664 C172.474,41.664 171.871,41.538 171.457,41.286 C171.043,41.034 170.836,40.692 170.836,40.26 C170.836,39.972 170.908,39.726 171.052,39.522 C171.196,39.318 171.4,39.138 171.664,38.982 L171.664,38.982 L174.256,38.982 C174.808,38.982 175.198,39.093 175.426,39.315 C175.654,39.537 175.768,39.816 175.768,40.152 C175.768,40.596 175.558,40.959 175.138,41.241 C174.718,41.523 174.094,41.664 173.266,41.664 Z M181.706,39 L181.706,33.078 C181.874,32.79 182.123,32.493 182.453,32.187 C182.783,31.881 183.236,31.728 183.812,31.728 C184.364,31.728 184.799,31.905 185.117,32.259 C185.435,32.613 185.594,33.09 185.594,33.69 L185.594,33.69 L185.594,39 L187.916,39 L187.916,33.6 C187.916,32.928 187.823,32.34 187.637,31.836 C187.451,31.332 187.199,30.912 186.881,30.576 C186.563,30.24 186.191,29.988 185.765,29.82 C185.339,29.652 184.88,29.568 184.388,29.568 C183.788,29.568 183.269,29.673 182.831,29.883 C182.393,30.093 182.018,30.348 181.706,30.648 L181.706,30.648 L181.706,29.928 L179.42,29.928 L179.42,39 L181.706,39 Z M194.7,39.36 C195.552,39.36 196.32,39.195 197.004,38.865 C197.688,38.535 198.24,38.088 198.66,37.524 L198.66,37.524 L197.022,36.228 C196.782,36.552 196.464,36.813 196.068,37.011 C195.672,37.209 195.228,37.308 194.736,37.308 C193.968,37.308 193.338,37.098 192.846,36.678 C192.354,36.258 192.072,35.676 192,34.932 L192,34.932 L198.354,34.932 C198.39,34.776 198.423,34.584 198.453,34.356 C198.483,34.128 198.498,33.888 198.498,33.636 C198.498,32.448 198.114,31.473 197.346,30.711 C196.578,29.949 195.57,29.568 194.322,29.568 C193.578,29.568 192.918,29.697 192.342,29.955 C191.766,30.213 191.28,30.564 190.884,31.008 C190.488,31.452 190.185,31.971 189.975,32.565 C189.765,33.159 189.66,33.792 189.66,34.464 C189.66,35.124 189.771,35.751 189.993,36.345 C190.215,36.939 190.539,37.458 190.965,37.902 C191.391,38.346 191.919,38.7 192.549,38.964 C193.179,39.228 193.896,39.36 194.7,39.36 Z M196.23,33.204 L192.144,33.204 C192.3,32.616 192.564,32.181 192.936,31.899 C193.308,31.617 193.77,31.476 194.322,31.476 C194.922,31.476 195.387,31.653 195.717,32.007 C196.047,32.361 196.218,32.76 196.23,33.204 L196.23,33.204 Z" id="desdémarchesenligne"/>
                    </g>
                </g>
            </g>
        </g>
    </g>
</svg>