<?xml version="1.0" encoding="UTF-8" standalone="no"?>
<svg
   xmlns:dc="http://purl.org/dc/elements/1.1/"
   xmlns:cc="http://creativecommons.org/ns#"
   xmlns:rdf="http://www.w3.org/1999/02/22-rdf-syntax-ns#"
   xmlns:svg="http://www.w3.org/2000/svg"
   xmlns="http://www.w3.org/2000/svg"
   viewBox="850 600 830 250"
   height="250"
   width="830"
   xml:space="preserve"
   id="svg2"
   version="1.1"><metadata
     id="metadata8"><rdf:RDF><cc:Work
         rdf:about=""><dc:format>image/svg+xml</dc:format><dc:type
           rdf:resource="http://purl.org/dc/dcmitype/StillImage" /></cc:Work></rdf:RDF></metadata><defs
     id="defs6"><clipPath
       id="clipPath18"
       clipPathUnits="userSpaceOnUse"><path
         id="path16"
         d="M 0,1080 H 1920 V 0 H 0 Z" /></clipPath><clipPath
       id="clipPath26"
       clipPathUnits="userSpaceOnUse"><path
         id="path24"
         d="m 1145.67,525.964 h 56.21 v -63.098 h -56.21 z" /></clipPath><clipPath
       id="clipPath58"
       clipPathUnits="userSpaceOnUse"><path
         id="path56"
         d="M 0,1080 H 1920 V 0 H 0 Z" /></clipPath></defs><g
     transform="matrix(1.3333333,0,0,-1.3333333,0,1440)"
     id="g10"><g
       id="g12"><g
         clip-path="url(#clipPath18)"
         id="g14"><g
           id="g20"><g
             id="g22" /><g
             id="g34"><g
               id="g32"
               clip-path="url(#clipPath26)"><g
                 id="g30"
                 transform="translate(1182.9668,525.9639)"><path
                   id="path28"
                   style="fill:#fc7e7e;fill-opacity:1;fill-rule:nonzero;stroke:none"
                   d="m 0,0 -28.236,-4.718 8.156,-48.813 -17.215,-2.877 v -6.69 H 18.917 V -17.63 L 2.761,-19.874 Z" /></g></g></g></g></g></g><g
       transform="translate(1154.7305,521.2461)"
       id="g36"><path
         id="path38"
         style="fill:#000091;fill-opacity:1;fill-rule:nonzero;stroke:none"
         d="M 0,0 28.236,4.718 24.038,34.957 H 12.113 V 47.322 H 32.832 L 2.008,55.288 -10.375,7.371 -58.549,19.82 V -8.89 h 49.49 v -42.8 l 17.215,2.877 z" /></g><g
       transform="translate(1189.5166,591.2417)"
       id="g40"><path
         id="path42"
         style="fill:#e1000f;fill-opacity:1;fill-rule:nonzero;stroke:none"
         d="m 0,0 h 12.367 v 26.817 h -56.212 v -49.49 h -49.491 v -27.502 l 48.175,-12.45 12.383,47.917 30.824,-7.965 H 0 Z" /></g><g
       transform="translate(1201.8838,533.5293)"
       id="g44"><path
         id="path46"
         style="fill:#66ccff;fill-opacity:1;fill-rule:nonzero;stroke:none"
         d="m 0,0 h -12.367 v 22.673 h -10.748 l 4.198,-30.238 2.761,-19.874 L 0,-25.195 v 4.022 H 49.491 V 35.039 H 22.559 V 22.673 L 0,22.673 Z" /></g><g
       transform="translate(1224.4424,568.5684)"
       id="g48"><path
         id="path50"
         style="fill:#ffffff;fill-opacity:1;fill-rule:nonzero;stroke:none"
         d="M 0,0 H -22.616 V 22.616 H -34.982 V 0 h -22.617 v -12.366 h 22.617 v -22.616 h 12.366 v 22.616 H 0 Z" /></g><g
       id="g52"><g
         clip-path="url(#clipPath58)"
         id="g54"><g
           transform="translate(654.2646,573.3369)"
           id="g60"><path
             id="path62"
             style="fill:#000000;fill-opacity:1;fill-rule:nonzero;stroke:none"
             d="m 0,0 c 3.618,-4.651 8.441,-7.407 13.352,-7.407 4.823,0 7.752,2.584 7.752,6.976 0,10.767 -27.564,8.356 -27.564,28.425 0,9.562 7.838,17.485 19.294,17.485 9.045,0 16.021,-4.047 21.104,-10.164 l -8.959,-8.01 c -3.531,4.565 -7.494,7.494 -12.058,7.494 -4.221,0 -6.978,-2.756 -6.978,-6.288 0,-10.767 27.564,-8.269 27.564,-28.683 -0.172,-11.198 -8.958,-18.089 -19.984,-18.089 -10.164,0 -17.054,3.704 -22.395,10.078 z" /></g><g
           transform="translate(701.4629,617.0937)"
           id="g64"><path
             id="path66"
             style="fill:#000000;fill-opacity:1;fill-rule:nonzero;stroke:none"
             d="M 0,0 H 35.144 V -10.422 H 12.231 V -24.376 H 31.698 V -34.799 H 12.231 V -49.872 H 35.144 V -60.295 H 0 Z" /></g><g
           transform="translate(763.9062,606.6719)"
           id="g68"><path
             id="path70"
             style="fill:#000000;fill-opacity:1;fill-rule:nonzero;stroke:none"
             d="m 0,0 v -15.074 h 6.891 c 5.168,0 8.182,2.757 8.182,7.666 C 15.073,-2.843 12.059,0 6.891,0 Z M -12.231,10.422 H 6.201 c 13.266,0 21.448,-6.805 21.448,-18.002 0,-7.235 -3.531,-12.662 -9.647,-15.591 l 18.95,-26.702 H 22.309 L 6.288,-25.497 H 0 v -24.376 h -12.231 z" /></g><g
           transform="translate(812.3965,617.0937)"
           id="g72"><path
             id="path74"
             style="fill:#000000;fill-opacity:1;fill-rule:nonzero;stroke:none"
             d="M 0,0 17.83,-47.116 35.66,0 H 48.666 L 25.841,-60.295 H 9.819 L -13.007,0 Z" /></g><path
           id="path76"
           style="fill:#000000;fill-opacity:1;fill-rule:nonzero;stroke:none"
           d="m 871.22,617.094 h 12.231 V 556.799 H 871.22 Z" /><g
           transform="translate(943.8291,574.8008)"
           id="g78"><path
             id="path80"
             style="fill:#000000;fill-opacity:1;fill-rule:nonzero;stroke:none"
             d="m 0,0 9.647,-7.407 c -5.512,-7.494 -14.47,-12.318 -25.41,-12.318 -19.036,0 -32.042,14.643 -32.042,31.871 0,17.227 13.006,31.87 32.042,31.87 10.94,0 19.898,-4.91 25.41,-12.232 L 0,24.291 c -3.445,4.909 -8.871,8.269 -15.763,8.269 -11.37,0 -19.466,-8.873 -19.466,-20.414 0,-11.542 8.096,-20.415 19.466,-20.415 6.892,0 12.318,3.36 15.763,8.269" /></g><g
           transform="translate(964.9268,617.0937)"
           id="g82"><path
             id="path84"
             style="fill:#000000;fill-opacity:1;fill-rule:nonzero;stroke:none"
             d="M 0,0 H 35.144 V -10.422 H 12.231 V -24.376 H 31.698 V -34.799 H 12.231 V -49.872 H 35.144 V -60.295 H 0 Z" /></g><g
           transform="translate(1018.584,573.3369)"
           id="g86"><path
             id="path88"
             style="fill:#000000;fill-opacity:1;fill-rule:nonzero;stroke:none"
             d="m 0,0 c 3.618,-4.651 8.441,-7.407 13.352,-7.407 4.823,0 7.752,2.584 7.752,6.976 0,10.767 -27.564,8.356 -27.564,28.425 0,9.562 7.838,17.485 19.294,17.485 9.045,0 16.021,-4.047 21.104,-10.164 l -8.959,-8.01 c -3.531,4.565 -7.494,7.494 -12.058,7.494 -4.221,0 -6.978,-2.756 -6.978,-6.288 0,-10.767 27.564,-8.269 27.564,-28.683 -0.172,-11.198 -8.958,-18.089 -19.984,-18.089 -10.164,0 -17.054,3.704 -22.395,10.078 z" /></g><g
           transform="translate(663.0508,515.208)"
           id="g90"><path
             id="path92"
             style="fill:#000000;fill-opacity:1;fill-rule:nonzero;stroke:none"
             d="m 0,0 v -15.074 h 8.183 c 5.168,0 8.269,2.757 8.269,7.666 C 16.452,-2.843 13.351,0 8.183,0 Z M -12.231,10.422 H 7.666 c 13.265,0 21.361,-6.805 21.361,-18.002 0,-11.111 -8.096,-17.917 -21.361,-17.917 H 0 v -24.376 h -12.231 z" /></g><g
           transform="translate(738.5859,525.6299)"
           id="g94"><path
             id="path96"
             style="fill:#000000;fill-opacity:1;fill-rule:nonzero;stroke:none"
             d="m 0,0 h 12.231 v -36.693 c 0,-15.85 -9.302,-25.325 -24.462,-25.325 -15.074,0 -24.376,9.475 -24.376,25.325 V 0 h 12.231 v -37.728 c 0,-8.096 4.564,-12.834 12.231,-12.834 7.494,0 12.145,4.738 12.145,12.834 z" /></g><g
           transform="translate(779.0635,491.5205)"
           id="g98"><path
             id="path100"
             style="fill:#000000;fill-opacity:1;fill-rule:nonzero;stroke:none"
             d="m 0,0 v -15.763 h 6.891 c 5.684,0 9.13,3.015 9.13,8.01 C 16.021,-2.757 12.575,0 6.891,0 Z M 0,23.687 V 10.509 h 5.168 c 4.651,0 7.321,2.325 7.321,6.632 0,4.048 -2.67,6.546 -7.321,6.546 z m -12.231,10.422 h 17.14 c 12.576,0 20.156,-6.201 20.156,-16.365 0,-4.824 -2.239,-9.045 -6.374,-11.887 6.374,-2.842 9.906,-8.01 9.906,-14.298 0,-11.026 -8.528,-17.745 -22.396,-17.745 h -18.432 z" /></g><g
           transform="translate(821.0068,525.6299)"
           id="g102"><path
             id="path104"
             style="fill:#000000;fill-opacity:1;fill-rule:nonzero;stroke:none"
             d="M 0,0 H 12.231 V -49.184 H 35.144 V -60.295 H 0 Z" /></g><path
           id="path106"
           style="fill:#000000;fill-opacity:1;fill-rule:nonzero;stroke:none"
           d="m 867.774,525.63 h 12.231 v -60.295 h -12.231 z" /><g
           transform="translate(940.3828,483.3369)"
           id="g108"><path
             id="path110"
             style="fill:#000000;fill-opacity:1;fill-rule:nonzero;stroke:none"
             d="m 0,0 9.647,-7.407 c -5.512,-7.494 -14.47,-12.318 -25.41,-12.318 -19.036,0 -32.042,14.643 -32.042,31.871 0,17.227 13.006,31.87 32.042,31.87 10.94,0 19.898,-4.91 25.41,-12.232 L 0,24.291 c -3.445,4.909 -8.871,8.269 -15.763,8.269 -11.37,0 -19.466,-8.873 -19.466,-20.414 0,-11.542 8.096,-20.415 19.466,-20.415 6.892,0 12.318,3.36 15.763,8.269" /></g><g
           transform="translate(965.1836,481.873)"
           id="g112"><path
             id="path114"
             style="fill:#000000;fill-opacity:1;fill-rule:nonzero;stroke:none"
             d="m 0,0 c 3.618,-4.651 8.441,-7.407 13.352,-7.407 4.823,0 7.752,2.584 7.752,6.976 0,10.767 -27.564,8.356 -27.564,28.425 0,9.562 7.838,17.485 19.294,17.485 9.045,0 16.021,-4.047 21.104,-10.164 l -8.959,-8.01 c -3.531,4.565 -7.494,7.494 -12.058,7.494 -4.221,0 -6.978,-2.756 -6.978,-6.288 0,-10.767 27.564,-8.269 27.564,-28.683 -0.172,-11.198 -8.958,-18.089 -19.984,-18.089 -10.164,0 -17.054,3.704 -22.395,10.078 z" /></g><g
           transform="translate(1037.5938,498.8184)"
           id="g116"><path
             id="path118"
             style="fill:#000000;fill-opacity:1;fill-rule:nonzero;stroke:none"
             d="M 0,0 V -15.531 H -11.25 V 0 H -26.781 V 11.25 H -11.25 V 26.781 H 0 V 11.25 h 15.447 l 0,-11.25 z" /></g></g></g></g></svg>
