<svg id="Calque_1" data-name="Calque 1" xmlns="http://www.w3.org/2000/svg" xmlns:xlink="http://www.w3.org/1999/xlink" viewBox="0 0 176.95 107.91"><defs><style>.cls-1{fill:url(#Dégradé_sans_nom_3);}.cls-2,.cls-3{fill:#fff;}.cls-2{stroke:#144391;stroke-miterlimit:10;stroke-width:4px;}.cls-4{fill:#144391;}</style><linearGradient id="Dégradé_sans_nom_3" x1="12.79" y1="53.95" x2="164.15" y2="53.95" gradientUnits="userSpaceOnUse"><stop offset="0" stop-color="#144391"/><stop offset="1" stop-color="#e20613"/></linearGradient></defs><title>Bouton Je donne mon avis</title><path class="cls-1" d="M164.15,55.64c0,14.72-10.58,26.76-23.51,26.76H36.31c-12.94,0-23.52-12-23.52-26.76V52.27c0-14.72,10.58-26.77,23.52-26.77H140.64c12.93,0,23.51,12,23.51,26.77Z"/><rect class="cls-2" x="19.38" y="31.94" width="138.18" height="44.03" rx="20.64" ry="20.64"/><path class="cls-3" d="M136.92,29.53H40a23.07,23.07,0,0,0-23,23v2.75a23.07,23.07,0,0,0,23,23h96.9a23.08,23.08,0,0,0,23.05-23V52.58A23.08,23.08,0,0,0,136.92,29.53Zm20.64,25.8A20.66,20.66,0,0,1,136.92,76H40A20.66,20.66,0,0,1,19.38,55.33V52.58A20.66,20.66,0,0,1,40,31.94h96.9a20.65,20.65,0,0,1,20.64,20.64Z"/><path class="cls-4" d="M55.08,52.13a9.69,9.69,0,0,0,1.09.11,1.17,1.17,0,0,0,1-.37,2.25,2.25,0,0,0,.27-1.29V40.28H59.4v10.3a3.92,3.92,0,0,1-.65,2.5,2.77,2.77,0,0,1-2.22.77,8.87,8.87,0,0,1-1.45-.12Z"/><path class="cls-4" d="M68.26,47.31H63a2.75,2.75,0,0,0,.61,1.81,2.14,2.14,0,0,0,1.64.58,3.76,3.76,0,0,0,2.33-.82l.54,1.3a4,4,0,0,1-1.34.7,5,5,0,0,1-1.61.27,4,4,0,0,1-2.94-1.06,3.86,3.86,0,0,1-1.07-2.9,4.38,4.38,0,0,1,.47-2.07A3.43,3.43,0,0,1,63,43.71a3.62,3.62,0,0,1,1.92-.5,3.17,3.17,0,0,1,2.48,1,4,4,0,0,1,.91,2.8ZM63.68,45a2.18,2.18,0,0,0-.61,1.29h3.55A2.19,2.19,0,0,0,66.1,45a1.6,1.6,0,0,0-1.19-.43A1.72,1.72,0,0,0,63.68,45Z"/><path class="cls-4" d="M81.3,39.91V51H79.44V49.81a2.42,2.42,0,0,1-1,1,3,3,0,0,1-1.48.36,3.17,3.17,0,0,1-1.75-.5A3.34,3.34,0,0,1,74,49.24a5.3,5.3,0,0,1,0-4.16,3.12,3.12,0,0,1,1.2-1.38A3.17,3.17,0,0,1,77,43.21a3,3,0,0,1,1.46.34,2.33,2.33,0,0,1,1,1V39.91ZM78.92,49a3.54,3.54,0,0,0,0-3.68,1.74,1.74,0,0,0-1.45-.65,1.79,1.79,0,0,0-1.48.64,2.86,2.86,0,0,0-.52,1.82A3,3,0,0,0,76,49a1.75,1.75,0,0,0,1.46.67A1.79,1.79,0,0,0,78.92,49Z"/><path class="cls-4" d="M84.76,50.67a3.37,3.37,0,0,1-1.36-1.39,4.95,4.95,0,0,1,0-4.21,3.29,3.29,0,0,1,1.36-1.38,4.22,4.22,0,0,1,2-.48,4.13,4.13,0,0,1,2,.48,3.21,3.21,0,0,1,1.35,1.38,4.86,4.86,0,0,1,0,4.21,3.29,3.29,0,0,1-1.35,1.39,4.13,4.13,0,0,1-2,.48A4.22,4.22,0,0,1,84.76,50.67ZM88.27,49a3.7,3.7,0,0,0,0-3.73,1.77,1.77,0,0,0-1.45-.64,1.8,1.8,0,0,0-1.47.64,3,3,0,0,0-.51,1.87A2.89,2.89,0,0,0,85.34,49a1.74,1.74,0,0,0,1.45.63A1.79,1.79,0,0,0,88.27,49Z"/><path class="cls-4" d="M99.39,46.35V51H97.5V46.44a2,2,0,0,0-.35-1.32,1.31,1.31,0,0,0-1.07-.42,1.87,1.87,0,0,0-1.39.55,2,2,0,0,0-.53,1.46V51H92.29V45.56a17.54,17.54,0,0,0-.12-2.16h1.77l.13,1.26a2.78,2.78,0,0,1,1.07-1.08,3,3,0,0,1,1.51-.37C98.48,43.21,99.39,44.25,99.39,46.35Z"/><path class="cls-4" d="M108.49,46.35V51h-1.88V46.44a2,2,0,0,0-.35-1.32,1.31,1.31,0,0,0-1.07-.42,1.85,1.85,0,0,0-1.39.55,2,2,0,0,0-.53,1.46V51H101.4V45.56a17.41,17.41,0,0,0-.13-2.16H103l.14,1.26a2.75,2.75,0,0,1,1.06-1.08,3.08,3.08,0,0,1,1.52-.37C107.58,43.21,108.49,44.25,108.49,46.35Z"/><path class="cls-4" d="M117.18,47.31h-5.26a2.75,2.75,0,0,0,.61,1.81,2.16,2.16,0,0,0,1.64.58,3.74,3.74,0,0,0,2.33-.82l.54,1.3a4,4,0,0,1-1.34.7,4.93,4.93,0,0,1-1.6.27,4,4,0,0,1-2.95-1.06,3.9,3.9,0,0,1-1.07-2.9,4.38,4.38,0,0,1,.47-2.07,3.5,3.5,0,0,1,1.31-1.41,3.62,3.62,0,0,1,1.92-.5,3.15,3.15,0,0,1,2.48,1,4,4,0,0,1,.92,2.8ZM112.59,45A2.24,2.24,0,0,0,112,46.3h3.55A2.13,2.13,0,0,0,115,45a1.6,1.6,0,0,0-1.19-.43A1.72,1.72,0,0,0,112.59,45Z"/><path class="cls-4" d="M61.33,58.61a4.91,4.91,0,0,1,.84,3.14V68h-2.5V61.83a3,3,0,0,0-.39-1.74,1.54,1.54,0,0,0-1.3-.53,2,2,0,0,0-1.63.73,3.15,3.15,0,0,0-.59,2V68h-2.5V61.83a2.92,2.92,0,0,0-.41-1.73,1.54,1.54,0,0,0-1.3-.54,2,2,0,0,0-1.64.73,3.1,3.1,0,0,0-.6,2V68H46.83V60.7a24.34,24.34,0,0,0-.16-2.86H49l.18,1.6a3.15,3.15,0,0,1,1.27-1.38,3.76,3.76,0,0,1,1.91-.48,2.89,2.89,0,0,1,3,1.92,3.51,3.51,0,0,1,1.37-1.41,4,4,0,0,1,2-.51A3.12,3.12,0,0,1,61.33,58.61Z"/><path class="cls-4" d="M66.71,67.47a4.32,4.32,0,0,1-1.81-1.83,6.52,6.52,0,0,1,0-5.59,4.37,4.37,0,0,1,1.81-1.83,5.51,5.51,0,0,1,2.71-.64,5.42,5.42,0,0,1,2.68.64,4.41,4.41,0,0,1,1.8,1.83,6.52,6.52,0,0,1,0,5.59,4.35,4.35,0,0,1-1.8,1.83,5.42,5.42,0,0,1-2.68.64A5.51,5.51,0,0,1,66.71,67.47Zm4.64-2.15a4.88,4.88,0,0,0,0-4.95,2.33,2.33,0,0,0-1.92-.85,2.35,2.35,0,0,0-1.94.85,4.88,4.88,0,0,0,0,4.95,2.34,2.34,0,0,0,1.93.83A2.36,2.36,0,0,0,71.35,65.32Z"/><path class="cls-4" d="M86.1,61.75V68H83.6V61.86a2.7,2.7,0,0,0-.46-1.75,1.77,1.77,0,0,0-1.42-.55,2.45,2.45,0,0,0-1.84.73,2.68,2.68,0,0,0-.71,1.94V68H76.69V60.7a22.35,22.35,0,0,0-.16-2.86h2.34l.18,1.66a3.66,3.66,0,0,1,1.42-1.42,4,4,0,0,1,2-.5C84.9,57.58,86.1,59,86.1,61.75Z"/><path class="cls-4" d="M103.93,57.84V68h-2.46V66.33a3.23,3.23,0,0,1-1.33,1.31,3.92,3.92,0,0,1-2,.47,4.28,4.28,0,0,1-2.34-.64,4.15,4.15,0,0,1-1.58-1.82,6.24,6.24,0,0,1-.56-2.74,6.45,6.45,0,0,1,.57-2.78,4.46,4.46,0,0,1,1.59-1.88,4.1,4.1,0,0,1,2.32-.67,4,4,0,0,1,2,.47,3.23,3.23,0,0,1,1.33,1.31V57.84Zm-3.14,7.45a3.83,3.83,0,0,0,.68-2.42,4,4,0,0,0-.68-2.47,2.37,2.37,0,0,0-2-.86,2.31,2.31,0,0,0-1.93.89,4,4,0,0,0-.69,2.48,3.69,3.69,0,0,0,.69,2.4,2.38,2.38,0,0,0,2,.84A2.34,2.34,0,0,0,100.79,65.29Z"/><path class="cls-4" d="M113.74,57.86h2.49L111.8,68h-2.18l-4.37-10.09h2.63l2.9,7.25Z"/><path class="cls-4" d="M117.37,53.25h2.78v2.47h-2.78Zm.16,14.7V57.84H120V68Z"/><path class="cls-4" d="M122.1,66.83l.7-1.76a6,6,0,0,0,3.7,1.2,2.72,2.72,0,0,0,1.4-.3,1,1,0,0,0,.49-.84.9.9,0,0,0-.34-.73,3.14,3.14,0,0,0-1.17-.47l-1.68-.38c-1.84-.4-2.76-1.34-2.76-2.83a2.69,2.69,0,0,1,.52-1.63A3.47,3.47,0,0,1,124.42,58a5.51,5.51,0,0,1,2.18-.4,6.67,6.67,0,0,1,2.09.33,5.64,5.64,0,0,1,1.76,1l-.74,1.7a5.29,5.29,0,0,0-3.13-1.12,2.44,2.44,0,0,0-1.34.32,1,1,0,0,0-.48.88.89.89,0,0,0,.29.7,2.48,2.48,0,0,0,1,.45l1.73.38a4.24,4.24,0,0,1,2.19,1,2.54,2.54,0,0,1,.69,1.85,2.6,2.6,0,0,1-1.12,2.22,5.09,5.09,0,0,1-3.07.82A6.8,6.8,0,0,1,122.1,66.83Z"/></svg>